ExploreSansVariable-ExtraLight.ufo
<glyph name="exclam" format="2">
  <advance width="234"/>
  <unicode hex="0021"/>
  <outline>
    <contour>
      <point x="94.6" y="716" type="line"/>
      <point x="140.6" y="716" type="line"/>
      <point x="136" y="184.8" type="line"/>
      <point x="96.4" y="184.8" type="line"/>
    </contour>
    <contour>
      <point x="116.2" y="71.6" type="curve" smooth="yes"/>
      <point x="148.2" y="71.6"/>
      <point x="155.8" y="47"/>
      <point x="155.8" y="31" type="curve" smooth="yes"/>
      <point x="155.8" y="11.8"/>
      <point x="146.6" y="-7"/>
      <point x="116.2" y="-7" type="curve" smooth="yes"/>
      <point x="85.8" y="-7"/>
      <point x="76.6" y="11.8"/>
      <point x="76.6" y="31" type="curve" smooth="yes"/>
      <point x="76.6" y="47"/>
      <point x="84.2" y="71.6"/>
    </contour>
  </outline>
</glyph>
<glyph name="asterisk" format="2">
  <advance width="560"/>
  <unicode hex="002A"/>
  <outline>
    <contour>
      <point x="251" y="806" type="line"/>
      <point x="284" y="806" type="line"/>
      <point x="284" y="692" type="line"/>
      <point x="279" y="634" type="line"/>
      <point x="332" y="661" type="line"/>
      <point x="438" y="698" type="line"/>
      <point x="449" y="669" type="line"/>
      <point x="355" y="635" type="line"/>
      <point x="284" y="615" type="line"/>
      <point x="320" y="575" type="line"/>
      <point x="392" y="476" type="line"/>
      <point x="367" y="458" type="line"/>
      <point x="297" y="558" type="line"/>
      <point x="267" y="601" type="line"/>
      <point x="239" y="558" type="line"/>
      <point x="168" y="458" type="line"/>
      <point x="143" y="476" type="line"/>
      <point x="213" y="575" type="line"/>
      <point x="252" y="615" type="line"/>
      <point x="181" y="635" type="line"/>
      <point x="86" y="669" type="line"/>
      <point x="96" y="698" type="line"/>
      <point x="201" y="661" type="line"/>
      <point x="257" y="634" type="line"/>
      <point x="251" y="692" type="line"/>
    </contour>
  </outline>
</glyph>
<glyph name="hyphen" format="2">
  <advance width="387"/>
  <unicode hex="002D"/>
  <outline>
    <contour>
      <point x="72" y="280" type="line"/>
      <point x="315" y="280" type="line"/>
      <point x="315" y="252" type="line"/>
      <point x="72" y="252" type="line"/>
    </contour>
  </outline>
</glyph>
<glyph name="slash" format="2">
  <advance width="346"/>
  <unicode hex="002F"/>
  <outline>
    <contour>
      <point x="331" y="772" type="line"/>
      <point x="361" y="772" type="line"/>
      <point x="15" y="-34" type="line"/>
      <point x="-15" y="-34" type="line"/>
    </contour>
  </outline>
</glyph>
<glyph name="six" format="2">
  <advance width="550"/>
  <unicode hex="0036"/>
  <outline>
    <contour>
      <point x="304" y="716" type="curve" smooth="yes"/>
      <point x="342" y="716"/>
      <point x="403" y="706"/>
      <point x="460" y="670" type="curve"/>
      <point x="444" y="646" type="line"/>
      <point x="389" y="677"/>
      <point x="364" y="688"/>
      <point x="298" y="688" type="curve" smooth="yes"/>
      <point x="154" y="688"/>
      <point x="93" y="582"/>
      <point x="93" y="311" type="curve"/>
      <point x="102" y="359"/>
      <point x="170" y="439"/>
      <point x="268" y="439" type="curve" smooth="yes"/>
      <point x="399" y="439"/>
      <point x="486" y="372"/>
      <point x="486" y="215" type="curve" smooth="yes"/>
      <point x="486" y="76"/>
      <point x="406" y="-8"/>
      <point x="272" y="-8" type="curve" smooth="yes"/>
      <point x="117" y="-8"/>
      <point x="64" y="84"/>
      <point x="64" y="312" type="curve" smooth="yes"/>
      <point x="64" y="601"/>
      <point x="135" y="716"/>
    </contour>
    <contour>
      <point x="268" y="411" type="curve" smooth="yes"/>
      <point x="174" y="411"/>
      <point x="98" y="326"/>
      <point x="98" y="225" type="curve" smooth="yes"/>
      <point x="98" y="107"/>
      <point x="143" y="20"/>
      <point x="271" y="20" type="curve" smooth="yes"/>
      <point x="398" y="20"/>
      <point x="454" y="99"/>
      <point x="454" y="215" type="curve" smooth="yes"/>
      <point x="454" y="348"/>
      <point x="388" y="411"/>
    </contour>
  </outline>
</glyph>
<glyph name="nine" format="2">
  <advance width="550"/>
  <unicode hex="0039"/>
  <outline>
    <contour>
      <point x="278" y="716" type="curve" smooth="yes"/>
      <point x="409" y="716"/>
      <point x="486" y="625"/>
      <point x="486" y="415" type="curve" smooth="yes"/>
      <point x="486" y="100"/>
      <point x="404" y="-8"/>
      <point x="239" y="-8" type="curve" smooth="yes"/>
      <point x="161" y="-8"/>
      <point x="101" y="24"/>
      <point x="56" y="57" type="curve"/>
      <point x="72" y="81" type="line"/>
      <point x="103" y="55"/>
      <point x="172" y="20"/>
      <point x="245" y="20" type="curve" smooth="yes"/>
      <point x="375" y="20"/>
      <point x="457" y="122"/>
      <point x="457" y="393" type="curve"/>
      <point x="447" y="329"/>
      <point x="380" y="261"/>
      <point x="282" y="261" type="curve" smooth="yes"/>
      <point x="151" y="261"/>
      <point x="64" y="332"/>
      <point x="64" y="489" type="curve" smooth="yes"/>
      <point x="64" y="628"/>
      <point x="144" y="716"/>
    </contour>
    <contour>
      <point x="279" y="688" type="curve" smooth="yes"/>
      <point x="152" y="688"/>
      <point x="96" y="605"/>
      <point x="96" y="489" type="curve" smooth="yes"/>
      <point x="96" y="356"/>
      <point x="162" y="289"/>
      <point x="282" y="289" type="curve" smooth="yes"/>
      <point x="376" y="289"/>
      <point x="452" y="364"/>
      <point x="452" y="479" type="curve" smooth="yes"/>
      <point x="452" y="598"/>
      <point x="391" y="688"/>
    </contour>
  </outline>
</glyph>
<glyph name="less" format="2">
  <advance width="518"/>
  <unicode hex="003C"/>
  <outline>
    <contour>
      <point x="51" y="329.4" type="line"/>
      <point x="467" y="501.4" type="line"/>
      <point x="486.8" y="466.8" type="line"/>
      <point x="34.2" y="279.6" type="line"/>
      <point x="486.8" y="90.2" type="line"/>
      <point x="467" y="55.6" type="line"/>
      <point x="51" y="227.6" type="line"/>
    </contour>
  </outline>
</glyph>
<glyph name="equal" format="2">
  <advance width="608"/>
  <unicode hex="003D"/>
  <outline>
    <contour>
      <point x="96" y="403" type="line"/>
      <point x="516" y="403" type="line"/>
      <point x="516" y="364" type="line"/>
      <point x="96" y="364" type="line"/>
    </contour>
    <contour>
      <point x="96" y="211" type="line"/>
      <point x="516" y="211" type="line"/>
      <point x="516" y="172" type="line"/>
      <point x="96" y="171" type="line"/>
    </contour>
  </outline>
</glyph>
<glyph name="at" format="2">
  <advance width="913"/>
  <unicode hex="0040"/>
  <outline>
    <contour>
      <point x="484" y="786" type="curve" smooth="yes"/>
      <point x="688" y="786"/>
      <point x="864" y="647"/>
      <point x="864" y="395" type="curve" smooth="yes"/>
      <point x="864" y="310"/>
      <point x="847" y="206"/>
      <point x="771" y="137" type="curve"/>
      <point x="741" y="129" type="line"/>
      <point x="604" y="219" type="line"/>
      <point x="575" y="165"/>
      <point x="524" y="124"/>
      <point x="426" y="124" type="curve" smooth="yes"/>
      <point x="334" y="124"/>
      <point x="266" y="184"/>
      <point x="266" y="312" type="curve" smooth="yes"/>
      <point x="266" y="479"/>
      <point x="374" y="581"/>
      <point x="488" y="581" type="curve" smooth="yes"/>
      <point x="561" y="581"/>
      <point x="614" y="533"/>
      <point x="625.6" y="510.6" type="curve"/>
      <point x="637.4" y="570.6" type="line"/>
      <point x="670.8" y="570.6" type="line"/>
      <point x="622" y="245" type="line"/>
      <point x="750" y="162" type="line"/>
      <point x="805" y="210"/>
      <point x="832" y="311"/>
      <point x="832" y="395" type="curve" smooth="yes"/>
      <point x="832" y="642"/>
      <point x="656" y="758"/>
      <point x="489" y="758" type="curve" smooth="yes"/>
      <point x="300" y="758"/>
      <point x="91" y="625"/>
      <point x="91" y="342" type="curve" smooth="yes"/>
      <point x="91" y="73"/>
      <point x="272" y="-53"/>
      <point x="493" y="-53" type="curve" smooth="yes"/>
      <point x="558" y="-53"/>
      <point x="618" y="-44"/>
      <point x="676" y="-24" type="curve"/>
      <point x="676" y="-52" type="line"/>
      <point x="611" y="-74"/>
      <point x="530" y="-82"/>
      <point x="489" y="-82" type="curve" smooth="yes"/>
      <point x="305" y="-82"/>
      <point x="59" y="14"/>
      <point x="59" y="346" type="curve" smooth="yes"/>
      <point x="59" y="639"/>
      <point x="282" y="786"/>
    </contour>
    <contour>
      <point x="486" y="548" type="curve" smooth="yes"/>
      <point x="382" y="548"/>
      <point x="298" y="445"/>
      <point x="298" y="317" type="curve" smooth="yes"/>
      <point x="298" y="207"/>
      <point x="342" y="152"/>
      <point x="435" y="152" type="curve" smooth="yes"/>
      <point x="523" y="152"/>
      <point x="585" y="208"/>
      <point x="596" y="288" type="curve" smooth="yes"/>
      <point x="620" y="469" type="line"/>
      <point x="594" y="513"/>
      <point x="549" y="548"/>
    </contour>
  </outline>
</glyph>
<glyph name="D" format="2">
  <advance width="605"/>
  <unicode hex="0044"/>
  <outline>
    <contour>
      <point x="117" y="680" type="line"/>
      <point x="117" y="28" type="line"/>
      <point x="252" y="28" type="line" smooth="yes"/>
      <point x="431" y="28"/>
      <point x="509" y="163"/>
      <point x="509" y="361" type="curve" smooth="yes"/>
      <point x="509" y="546"/>
      <point x="429" y="680"/>
      <point x="254" y="680" type="curve" smooth="yes"/>
    </contour>
    <contour>
      <point x="84" y="708" type="line"/>
      <point x="254" y="708" type="line" smooth="yes"/>
      <point x="437" y="708"/>
      <point x="541" y="585"/>
      <point x="541" y="361" type="curve" smooth="yes"/>
      <point x="541" y="124"/>
      <point x="439" y="0"/>
      <point x="250" y="0" type="curve" smooth="yes"/>
      <point x="84" y="0" type="line"/>
    </contour>
  </outline>
</glyph>
<glyph name="H" format="2">
  <advance width="616"/>
  <unicode hex="0048"/>
  <outline>
    <contour>
      <point x="100" y="708" type="line"/>
      <point x="132" y="708" type="line"/>
      <point x="132" y="393" type="line"/>
      <point x="484" y="393" type="line"/>
      <point x="484" y="708" type="line"/>
      <point x="516" y="708" type="line"/>
      <point x="516" y="0" type="line"/>
      <point x="484" y="0" type="line"/>
      <point x="484" y="365" type="line"/>
      <point x="132" y="365" type="line"/>
      <point x="132" y="0" type="line"/>
      <point x="100" y="0" type="line"/>
    </contour>
  </outline>
</glyph>
<glyph name="K" format="2">
  <advance width="530"/>
  <unicode hex="004B"/>
  <outline>
    <contour>
      <point x="100.83" y="708" type="line"/>
      <point x="132.678" y="708" type="line"/>
      <point x="132.872" y="373.134" type="line"/>
      <point x="157" y="373" type="line"/>
      <point x="458" y="708" type="line"/>
      <point x="497.6" y="708" type="line"/>
      <point x="181.6" y="358.4" type="line"/>
      <point x="498" y="0" type="line"/>
      <point x="459" y="0" type="line"/>
      <point x="157" y="344" type="line"/>
      <point x="132.678" y="343.881" type="line"/>
      <point x="132.678" y="0" type="line"/>
      <point x="100.83" y="0" type="line"/>
    </contour>
  </outline>
</glyph>
<glyph name="N" format="2">
  <advance width="656"/>
  <unicode hex="004E"/>
  <outline>
    <contour>
      <point x="102.967" y="708" type="line"/>
      <point x="133.6" y="708" type="line"/>
      <point x="524.218" y="67.8223" type="line"/>
      <point x="524.218" y="708" type="line"/>
      <point x="555.855" y="708" type="line"/>
      <point x="555.855" y="0" type="line"/>
      <point x="525.6" y="0" type="line"/>
      <point x="134.553" y="645.559" type="line"/>
      <point x="134.553" y="0" type="line"/>
      <point x="102.967" y="0" type="line"/>
    </contour>
  </outline>
</glyph>
<glyph name="O" format="2">
  <advance width="632.0044000007359"/>
  <unicode hex="004F"/>
  <anchor x="326" y="881" name="AccentCenter"/>
  <outline>
    <contour>
      <point x="317.90240000073584" y="715.991" type="curve" smooth="yes"/>
      <point x="478.7794000007358" y="715.797"/>
      <point x="568.0044000007359" y="579.35"/>
      <point x="568.0044000007359" y="353.614" type="curve" smooth="yes"/>
      <point x="568.0044000007359" y="127.877"/>
      <point x="478.52640000073586" y="-8.0393"/>
      <point x="317.90240000073584" y="-8.0239" type="curve" smooth="yes"/>
      <point x="155.97240000073586" y="-8.0084"/>
      <point x="64" y="128"/>
      <point x="64" y="354" type="curve" smooth="yes"/>
      <point x="64" y="579"/>
      <point x="155.73040000073584" y="716.187"/>
    </contour>
    <contour>
      <point x="317.90240000073584" y="687.895" type="curve" smooth="yes"/>
      <point x="171.61540000073583" y="687.895"/>
      <point x="96" y="552"/>
      <point x="96" y="354" type="curve" smooth="yes"/>
      <point x="96" y="155"/>
      <point x="171.76440000073583" y="20.0528"/>
      <point x="317.90140000073586" y="19.8058" type="curve" smooth="yes"/>
      <point x="462.7614000007359" y="19.561"/>
      <point x="535.8624000007359" y="150.56"/>
      <point x="535.8624000007359" y="353.614" type="curve" smooth="yes"/>
      <point x="535.8624000007359" y="556.667"/>
      <point x="462.9244000007359" y="687.895"/>
    </contour>
  </outline>
</glyph>
<glyph name="Q" format="2">
  <advance width="640"/>
  <unicode hex="0051"/>
  <outline>
    <contour>
      <point x="325.4" y="687.691" type="curve" smooth="yes"/>
      <point x="178.86" y="687.691"/>
      <point x="99.9191" y="575.287"/>
      <point x="99.9191" y="354.6" type="curve" smooth="yes"/>
      <point x="99.9191" y="125.913"/>
      <point x="178.86" y="16.8818"/>
      <point x="325.4" y="16.8818" type="curve" smooth="yes"/>
      <point x="471.94" y="16.8818"/>
      <point x="539.859" y="126.853"/>
      <point x="539.859" y="354.6" type="curve" smooth="yes"/>
      <point x="539.859" y="574.347"/>
      <point x="471.94" y="687.691"/>
    </contour>
    <contour>
      <point x="325.4" y="716" type="curve" smooth="yes"/>
      <point x="482.6" y="716"/>
      <point x="571.996" y="598.008"/>
      <point x="571.996" y="354.6" type="curve" smooth="yes"/>
      <point x="571.996" y="119.192"/>
      <point x="502.827" y="0"/>
      <point x="338.902" y="-11.0098" type="curve"/>
      <point x="344.79" y="-127.672"/>
      <point x="403.894" y="-153"/>
      <point x="487.324" y="-153" type="curve" smooth="yes"/>
      <point x="547.8" y="-153" type="line"/>
      <point x="550.138" y="-170.269" type="line"/>
      <point x="535.512" y="-176.443"/>
      <point x="500.112" y="-184"/>
      <point x="471.827" y="-184" type="curve" smooth="yes"/>
      <point x="366.439" y="-184"/>
      <point x="315.006" y="-127.672"/>
      <point x="306.902" y="-11" type="curve"/>
      <point x="142.988" y="0"/>
      <point x="68.0026" y="109.592"/>
      <point x="68.0026" y="354.6" type="curve" smooth="yes"/>
      <point x="68.0026" y="598.008"/>
      <point x="161.2" y="716"/>
    </contour>
  </outline>
</glyph>
<glyph name="R" format="2">
  <advance width="586"/>
  <unicode hex="0052"/>
  <outline>
    <contour>
      <point x="100" y="708" type="line"/>
      <point x="313.414" y="708" type="line" smooth="yes"/>
      <point x="441.511" y="708"/>
      <point x="519.414" y="643"/>
      <point x="519.746" y="513.108" type="curve" smooth="yes"/>
      <point x="519.414" y="392"/>
      <point x="452" y="325"/>
      <point x="338" y="320" type="curve"/>
      <point x="527.414" y="0" type="line"/>
      <point x="487.414" y="0" type="line"/>
      <point x="300" y="319" type="line"/>
      <point x="132.313" y="319" type="line"/>
      <point x="132.313" y="0" type="line"/>
      <point x="100" y="0" type="line"/>
    </contour>
    <contour>
      <point x="132.313" y="347" type="line"/>
      <point x="320" y="347" type="line" smooth="yes"/>
      <point x="425" y="347"/>
      <point x="487.414" y="401"/>
      <point x="487.579" y="513.108" type="curve" smooth="yes"/>
      <point x="487.414" y="628"/>
      <point x="427.703" y="680.265"/>
      <point x="316.414" y="680.265" type="curve" smooth="yes"/>
      <point x="132.313" y="680.265" type="line"/>
    </contour>
  </outline>
</glyph>
<glyph name="S" format="2">
  <advance width="588"/>
  <unicode hex="0053"/>
  <outline>
    <contour>
      <point x="315" y="716" type="curve" smooth="yes"/>
      <point x="382" y="716"/>
      <point x="455.631" y="692.26"/>
      <point x="514.047" y="647.932" type="curve"/>
      <point x="497.934" y="625.688" type="line"/>
      <point x="433.29" y="669.936"/>
      <point x="373.549" y="687.842"/>
      <point x="312.2" y="687.842" type="curve" smooth="yes"/>
      <point x="174.92" y="687.842"/>
      <point x="122.63" y="631.618"/>
      <point x="122.63" y="548.8" type="curve" smooth="yes"/>
      <point x="122.63" y="468.46"/>
      <point x="143.443" y="420.069"/>
      <point x="253.622" y="388.331" type="curve" smooth="yes"/>
      <point x="367.343" y="355.574" type="line" smooth="yes"/>
      <point x="454.978" y="330.33"/>
      <point x="523.103" y="275.564"/>
      <point x="523.103" y="169.6" type="curve"/>
      <point x="523.103" y="61.3321"/>
      <point x="458.741" y="-8"/>
      <point x="300.8" y="-8" type="curve" smooth="yes"/>
      <point x="201.861" y="-8"/>
      <point x="139.757" y="14.7075"/>
      <point x="53.6" y="78.2" type="curve"/>
      <point x="73.3193" y="103.023" type="line"/>
      <point x="137.015" y="46.6989"/>
      <point x="228.393" y="19.5668"/>
      <point x="303" y="19.5668" type="curve" smooth="yes"/>
      <point x="433.685" y="19.5668"/>
      <point x="490.74" y="73.9876"/>
      <point x="490.74" y="173.2" type="curve" smooth="yes"/>
      <point x="490.74" y="258.847"/>
      <point x="435.464" y="304.82"/>
      <point x="357.459" y="326.546" type="curve" smooth="yes"/>
      <point x="244.914" y="357.892" type="line" smooth="yes"/>
      <point x="130.829" y="389.666"/>
      <point x="90.9353" y="452.35"/>
      <point x="90.9353" y="543.4" type="curve" smooth="yes"/>
      <point x="90.9353" y="641.319"/>
      <point x="145.522" y="716"/>
    </contour>
  </outline>
</glyph>
<glyph name="bracketleft" format="2">
  <advance width="309"/>
  <unicode hex="005B"/>
  <outline>
    <contour>
      <point x="64" y="819" type="line"/>
      <point x="245" y="819" type="line"/>
      <point x="245" y="791" type="line"/>
      <point x="96" y="791" type="line"/>
      <point x="96" y="-36" type="line"/>
      <point x="245" y="-36" type="line"/>
      <point x="245" y="-64" type="line"/>
      <point x="64" y="-64" type="line"/>
    </contour>
  </outline>
</glyph>
<glyph name="a" format="2">
  <advance width="498"/>
  <unicode hex="0061"/>
  <anchor x="246" y="687" name="AccentCenter"/>
  <anchor x="236" y="687" name="Ring"/>
  <outline>
    <contour>
      <point x="236" y="528" type="curve" smooth="yes"/>
      <point x="338" y="528"/>
      <point x="407" y="467"/>
      <point x="407" y="345" type="curve" smooth="yes"/>
      <point x="407" y="52" type="line" smooth="yes"/>
      <point x="407" y="52"/>
      <point x="481" y="20"/>
      <point x="481" y="20" type="curve"/>
      <point x="470" y="-8" type="line"/>
      <point x="470" y="-8"/>
      <point x="375" y="32"/>
      <point x="375" y="32" type="curve" smooth="yes"/>
      <point x="375" y="32"/>
      <point x="375" y="84"/>
      <point x="375" y="84" type="curve"/>
      <point x="349" y="44"/>
      <point x="290" y="-8"/>
      <point x="207" y="-8" type="curve" smooth="yes"/>
      <point x="118" y="-8"/>
      <point x="48" y="37"/>
      <point x="48" y="131" type="curve" smooth="yes"/>
      <point x="48" y="240"/>
      <point x="143" y="292"/>
      <point x="245" y="292" type="curve" smooth="yes"/>
      <point x="375" y="292" type="line"/>
      <point x="375" y="359" type="line" smooth="yes"/>
      <point x="375" y="447"/>
      <point x="321" y="500"/>
      <point x="236" y="500" type="curve" smooth="yes"/>
      <point x="182" y="500"/>
      <point x="121" y="476"/>
      <point x="86" y="444" type="curve"/>
      <point x="71" y="466" type="line"/>
      <point x="111" y="500"/>
      <point x="167" y="528"/>
    </contour>
    <contour>
      <point x="375" y="264" type="line"/>
      <point x="242" y="264" type="line" smooth="yes"/>
      <point x="144" y="264"/>
      <point x="80" y="215"/>
      <point x="80" y="131" type="curve" smooth="yes"/>
      <point x="80" y="51"/>
      <point x="132" y="20"/>
      <point x="205" y="20" type="curve" smooth="yes"/>
      <point x="288" y="20"/>
      <point x="350" y="78"/>
      <point x="375" y="129" type="curve"/>
    </contour>
  </outline>
</glyph>
<glyph name="c" format="2">
  <advance width="487"/>
  <unicode hex="0063"/>
  <outline>
    <contour>
      <point x="271" y="528" type="curve" smooth="yes"/>
      <point x="348" y="528"/>
      <point x="393" y="499"/>
      <point x="436" y="460" type="curve"/>
      <point x="418" y="438" type="line"/>
      <point x="381" y="473"/>
      <point x="335" y="500"/>
      <point x="273" y="500" type="curve" smooth="yes"/>
      <point x="149" y="500"/>
      <point x="88" y="406"/>
      <point x="88" y="260" type="curve" smooth="yes"/>
      <point x="88" y="122"/>
      <point x="144" y="20"/>
      <point x="269" y="20" type="curve" smooth="yes"/>
      <point x="342" y="20"/>
      <point x="398" y="56"/>
      <point x="438" y="89" type="curve"/>
      <point x="455" y="65" type="line"/>
      <point x="404" y="25"/>
      <point x="347" y="-8"/>
      <point x="268" y="-8" type="curve" smooth="yes"/>
      <point x="125" y="-8"/>
      <point x="56" y="99"/>
      <point x="56" y="260" type="curve" smooth="yes"/>
      <point x="56" y="421"/>
      <point x="131" y="528"/>
    </contour>
  </outline>
</glyph>
<glyph name="e" format="2">
  <advance width="524"/>
  <unicode hex="0065"/>
  <anchor x="274" y="687" name="AccentCenter"/>
  <outline>
    <contour>
      <point x="268" y="528" type="curve" smooth="yes"/>
      <point x="381" y="528"/>
      <point x="459" y="447"/>
      <point x="459" y="302" type="curve" smooth="yes"/>
      <point x="459" y="287"/>
      <point x="456.229" y="262.831"/>
      <point x="455" y="257" type="curve"/>
      <point x="98" y="257" type="line"/>
      <point x="98" y="106"/>
      <point x="158" y="20"/>
      <point x="279" y="20" type="curve" smooth="yes"/>
      <point x="348" y="20"/>
      <point x="397" y="40"/>
      <point x="440" y="67" type="curve"/>
      <point x="454" y="40" type="line"/>
      <point x="413" y="19"/>
      <point x="370" y="-8"/>
      <point x="277" y="-8" type="curve" smooth="yes"/>
      <point x="140" y="-8"/>
      <point x="64" y="80"/>
      <point x="64" y="268" type="curve" smooth="yes"/>
      <point x="64" y="438"/>
      <point x="142" y="528"/>
    </contour>
    <contour>
      <point x="268" y="500" type="curve" smooth="yes"/>
      <point x="166" y="500"/>
      <point x="98" y="431"/>
      <point x="98" y="283" type="curve"/>
      <point x="427" y="283" type="line"/>
      <point x="427" y="322" type="line" smooth="yes"/>
      <point x="427" y="432"/>
      <point x="359" y="500"/>
    </contour>
  </outline>
</glyph>
<glyph name="g" format="2">
  <advance width="535"/>
  <unicode hex="0067"/>
  <outline>
    <contour>
      <point x="240" y="528" type="curve" smooth="yes"/>
      <point x="274" y="528"/>
      <point x="309" y="517"/>
      <point x="330" y="506" type="curve"/>
      <point x="461" y="520" type="line"/>
      <point x="483" y="520" type="line"/>
      <point x="483" y="486" type="line"/>
      <point x="360" y="486" type="line"/>
      <point x="391" y="460"/>
      <point x="414" y="420"/>
      <point x="414" y="360" type="curve" smooth="yes"/>
      <point x="414" y="273"/>
      <point x="345" y="202"/>
      <point x="240" y="202" type="curve" smooth="yes"/>
      <point x="204" y="202"/>
      <point x="171" y="211"/>
      <point x="171" y="211" type="curve"/>
      <point x="104" y="109" type="line"/>
      <point x="360" y="75" type="line" smooth="yes"/>
      <point x="426" y="66"/>
      <point x="490" y="35"/>
      <point x="490" y="-45" type="curve" smooth="yes"/>
      <point x="490" y="-136"/>
      <point x="413" y="-192"/>
      <point x="275" y="-192" type="curve" smooth="yes"/>
      <point x="168" y="-192"/>
      <point x="99" y="-156"/>
      <point x="48" y="-120" type="curve"/>
      <point x="48" y="-93" type="line"/>
      <point x="166" y="71" type="line"/>
      <point x="71" y="84" type="line"/>
      <point x="72" y="117" type="line"/>
      <point x="141" y="222" type="line"/>
      <point x="95" y="254"/>
      <point x="65" y="292"/>
      <point x="65" y="360" type="curve" smooth="yes"/>
      <point x="65" y="453"/>
      <point x="132" y="528"/>
    </contour>
    <contour>
      <point x="201" y="65" type="line"/>
      <point x="76" y="-103" type="line"/>
      <point x="112" y="-131"/>
      <point x="189" y="-164"/>
      <point x="272" y="-164" type="curve" smooth="yes"/>
      <point x="391" y="-164"/>
      <point x="458" y="-124"/>
      <point x="458" y="-47" type="curve" smooth="yes"/>
      <point x="458" y="15"/>
      <point x="410" y="38"/>
      <point x="358" y="45" type="curve" smooth="yes"/>
    </contour>
    <contour>
      <point x="240" y="500" type="curve" smooth="yes"/>
      <point x="146" y="500"/>
      <point x="97" y="438"/>
      <point x="97" y="360" type="curve" smooth="yes"/>
      <point x="97" y="285"/>
      <point x="142" y="228"/>
      <point x="240" y="228" type="curve" smooth="yes"/>
      <point x="317" y="228"/>
      <point x="382" y="280"/>
      <point x="382" y="360" type="curve" smooth="yes"/>
      <point x="382" y="451"/>
      <point x="318" y="500"/>
    </contour>
  </outline>
</glyph>
<glyph name="h" format="2">
  <advance width="575"/>
  <unicode hex="0068"/>
  <outline>
    <contour>
      <point x="100" y="706" type="line"/>
      <point x="132" y="706" type="line"/>
      <point x="132" y="440" type="line"/>
      <point x="167" y="494.986"/>
      <point x="229.964" y="528"/>
      <point x="290" y="528" type="curve" smooth="yes"/>
      <point x="402.642" y="528"/>
      <point x="475" y="458.668"/>
      <point x="475" y="329" type="curve" smooth="yes"/>
      <point x="475" y="0" type="line"/>
      <point x="444" y="0" type="line"/>
      <point x="444" y="334" type="line" smooth="yes"/>
      <point x="444" y="444.934"/>
      <point x="376.529" y="500"/>
      <point x="289" y="500" type="curve" smooth="yes"/>
      <point x="221.623" y="500"/>
      <point x="168.296" y="455.036"/>
      <point x="132" y="398" type="curve"/>
      <point x="132" y="0" type="line"/>
      <point x="100" y="0" type="line"/>
    </contour>
  </outline>
</glyph>
<glyph name="j" format="2">
  <advance width="274"/>
  <unicode hex="006A"/>
  <outline>
    <contour>
      <point x="116" y="521" type="line"/>
      <point x="148" y="521" type="line"/>
      <point x="148" y="-67" type="line"/>
      <point x="148" y="-137"/>
      <point x="102.355" y="-191"/>
      <point x="14" y="-191" type="curve" smooth="yes"/>
      <point x="12" y="-191" type="line"/>
      <point x="12" y="-163" type="line"/>
      <point x="14" y="-163" type="line" smooth="yes"/>
      <point x="85" y="-163"/>
      <point x="116" y="-127.869"/>
      <point x="116" y="-72.9635" type="curve" smooth="yes"/>
    </contour>
    <contour>
      <point x="129" y="731" type="curve" smooth="yes"/>
      <point x="149" y="731"/>
      <point x="168" y="717"/>
      <point x="168" y="692" type="curve" smooth="yes"/>
      <point x="168" y="665"/>
      <point x="149" y="653"/>
      <point x="129" y="653" type="curve" smooth="yes"/>
      <point x="109" y="653"/>
      <point x="91" y="666"/>
      <point x="91" y="692" type="curve" smooth="yes"/>
      <point x="91" y="717"/>
      <point x="109" y="731"/>
    </contour>
  </outline>
</glyph>
<glyph name="l" format="2">
  <advance width="241"/>
  <unicode hex="006C"/>
  <outline>
    <contour>
      <point x="100" y="791" type="line"/>
      <point x="132" y="791" type="line"/>
      <point x="132.197" y="50.0191" type="line" smooth="yes"/>
      <point x="132.202" y="31.5564"/>
      <point x="148.535" y="23.0425"/>
      <point x="167.644" y="23" type="curve" smooth="yes"/>
      <point x="175.644" y="22.9822"/>
      <point x="184.1" y="24.1216"/>
      <point x="196.953" y="26.0948" type="curve"/>
      <point x="216" y="29" type="line"/>
      <point x="220.808" y="2.42006" type="line"/>
      <point x="205.381" y="-3.20964"/>
      <point x="179.163" y="-8"/>
      <point x="158" y="-8" type="curve" smooth="yes"/>
      <point x="115" y="-8"/>
      <point x="100" y="15.539"/>
      <point x="100" y="51" type="curve" smooth="yes"/>
    </contour>
  </outline>
</glyph>
<glyph name="o" format="2">
  <advance width="550"/>
  <unicode hex="006F"/>
  <anchor x="277" y="687" name="AccentCenter"/>
  <outline>
    <contour>
      <point x="274" y="500" type="curve" smooth="yes"/>
      <point x="174" y="500"/>
      <point x="96" y="433"/>
      <point x="96" y="257" type="curve" smooth="yes"/>
      <point x="96" y="83"/>
      <point x="172" y="20"/>
      <point x="272" y="20" type="curve" smooth="yes"/>
      <point x="373" y="20"/>
      <point x="454" y="85"/>
      <point x="454" y="260" type="curve" smooth="yes"/>
      <point x="454" y="435"/>
      <point x="373" y="500"/>
    </contour>
    <contour>
      <point x="274" y="528" type="curve" smooth="yes"/>
      <point x="419" y="528"/>
      <point x="486" y="425"/>
      <point x="486" y="257" type="curve" smooth="yes"/>
      <point x="486" y="98"/>
      <point x="413" y="-8"/>
      <point x="272" y="-8" type="curve" smooth="yes"/>
      <point x="131" y="-8"/>
      <point x="64" y="96"/>
      <point x="64" y="259" type="curve" smooth="yes"/>
      <point x="64" y="426"/>
      <point x="129" y="528"/>
    </contour>
  </outline>
</glyph>
<glyph name="q" format="2">
  <advance width="577"/>
  <unicode hex="0071"/>
  <outline>
    <contour>
      <point x="281" y="500" type="curve" smooth="yes"/>
      <point x="170" y="500"/>
      <point x="96" y="421"/>
      <point x="96" y="265" type="curve" smooth="yes"/>
      <point x="96" y="118"/>
      <point x="166" y="20"/>
      <point x="277" y="20" type="curve" smooth="yes"/>
      <point x="361" y="20"/>
      <point x="403" y="56"/>
      <point x="445" y="127" type="curve"/>
      <point x="445" y="398" type="line"/>
      <point x="417" y="442"/>
      <point x="362" y="500"/>
    </contour>
    <contour>
      <point x="454" y="520" type="line"/>
      <point x="477" y="520" type="line"/>
      <point x="477" y="-192" type="line"/>
      <point x="445" y="-192" type="line"/>
      <point x="445" y="79" type="line"/>
      <point x="396" y="8"/>
      <point x="319" y="-8"/>
      <point x="274" y="-8" type="curve" smooth="yes"/>
      <point x="153" y="-8"/>
      <point x="64" y="98"/>
      <point x="64" y="261" type="curve" smooth="yes"/>
      <point x="64" y="437"/>
      <point x="144" y="528"/>
      <point x="270" y="528" type="curve" smooth="yes"/>
      <point x="357" y="528"/>
      <point x="404" y="492"/>
      <point x="445" y="436" type="curve"/>
    </contour>
  </outline>
</glyph>
<glyph name="t" format="2">
  <advance width="372"/>
  <unicode hex="0074"/>
  <outline>
    <contour>
      <point x="136" y="671" type="line"/>
      <point x="168" y="687" type="line"/>
      <point x="168" y="520" type="line"/>
      <point x="307" y="520" type="line"/>
      <point x="307" y="492" type="line"/>
      <point x="168" y="492" type="line"/>
      <point x="168" y="92" type="line" smooth="yes"/>
      <point x="168" y="45"/>
      <point x="194" y="19"/>
      <point x="239" y="19" type="curve" smooth="yes"/>
      <point x="248" y="19"/>
      <point x="273" y="19"/>
      <point x="285" y="22" type="curve"/>
      <point x="312" y="28" type="line"/>
      <point x="316" y="4" type="line"/>
      <point x="278" y="-6"/>
      <point x="254" y="-8"/>
      <point x="233" y="-8" type="curve" smooth="yes"/>
      <point x="174" y="-8"/>
      <point x="136" y="28"/>
      <point x="136" y="92" type="curve" smooth="yes"/>
      <point x="136" y="492" type="line"/>
      <point x="20" y="492" type="line"/>
      <point x="20" y="520" type="line"/>
      <point x="136" y="520" type="line"/>
    </contour>
  </outline>
</glyph>
<glyph name="u" format="2">
  <advance width="559"/>
  <unicode hex="0075"/>
  <anchor x="276" y="687" name="AccentCenter"/>
  <outline>
    <contour>
      <point x="100" y="520" type="line"/>
      <point x="132" y="520" type="line"/>
      <point x="132" y="164" type="line" smooth="yes"/>
      <point x="132" y="70"/>
      <point x="185" y="20"/>
      <point x="256" y="20" type="curve" smooth="yes"/>
      <point x="325" y="20"/>
      <point x="377" y="68"/>
      <point x="427" y="128" type="curve"/>
      <point x="427" y="520" type="line"/>
      <point x="459" y="520" type="line"/>
      <point x="459" y="0" type="line"/>
      <point x="433" y="0" type="line"/>
      <point x="428" y="94" type="line"/>
      <point x="400" y="56"/>
      <point x="342" y="-8"/>
      <point x="255" y="-8" type="curve" smooth="yes"/>
      <point x="154" y="-8"/>
      <point x="100" y="60"/>
      <point x="100" y="162" type="curve" smooth="yes"/>
    </contour>
  </outline>
</glyph>
<glyph name="v" format="2">
  <advance width="519"/>
  <unicode hex="0076"/>
  <outline>
    <contour>
      <point x="40" y="520" type="line"/>
      <point x="74" y="520" type="line"/>
      <point x="262" y="23" type="line"/>
      <point x="444" y="520" type="line"/>
      <point x="479" y="520" type="line"/>
      <point x="283" y="0" type="line"/>
      <point x="242" y="0" type="line"/>
    </contour>
  </outline>
</glyph>
<glyph name="w" format="2">
  <advance width="691"/>
  <unicode hex="0077"/>
  <outline>
    <contour>
      <point x="40" y="520" type="line"/>
      <point x="76.4" y="520" type="line"/>
      <point x="185" y="37" type="line"/>
      <point x="320" y="520" type="line"/>
      <point x="380" y="520" type="line"/>
      <point x="499" y="37" type="line"/>
      <point x="616.4" y="520" type="line"/>
      <point x="651" y="520" type="line"/>
      <point x="525" y="0" type="line"/>
      <point x="473" y="0" type="line"/>
      <point x="350" y="488" type="line"/>
      <point x="207.6" y="0" type="line"/>
      <point x="162" y="0" type="line"/>
    </contour>
  </outline>
</glyph>
<glyph name="y" format="2">
  <advance width="531"/>
  <unicode hex="0079"/>
  <anchor x="293.2" y="687" name="AccentCenter"/>
  <outline>
    <contour>
      <point x="40" y="520" type="line"/>
      <point x="82" y="520" type="line"/>
      <point x="266" y="37" type="line"/>
      <point x="268" y="26" type="line"/>
      <point x="270" y="37" type="line"/>
      <point x="453" y="520" type="line"/>
      <point x="491" y="520" type="line"/>
      <point x="207" y="-192" type="line"/>
      <point x="176" y="-192" type="line"/>
      <point x="252" y="1" type="line"/>
    </contour>
  </outline>
</glyph>
<glyph name="z" format="2">
  <advance width="542"/>
  <unicode hex="007A"/>
  <outline>
    <contour>
      <point x="98" y="520" type="line"/>
      <point x="447" y="520" type="line"/>
      <point x="447" y="492" type="line"/>
      <point x="132" y="28" type="line"/>
      <point x="447" y="28" type="line"/>
      <point x="447" y="0" type="line"/>
      <point x="94" y="0" type="line"/>
      <point x="94" y="28" type="line"/>
      <point x="408" y="492" type="line"/>
      <point x="98" y="492" type="line"/>
    </contour>
  </outline>
</glyph>
<glyph name="currency" format="2">
  <advance width="614"/>
  <unicode hex="00A4"/>
  <outline>
    <contour>
      <point x="475.2" y="148" type="line"/>
      <point x="567.2" y="56" type="line"/>
      <point x="536.2" y="25" type="line"/>
      <point x="444.2" y="116" type="line"/>
    </contour>
    <contour>
      <point x="170.2" y="116" type="line"/>
      <point x="78.2" y="25" type="line"/>
      <point x="47.2" y="56" type="line"/>
      <point x="139.2" y="147" type="line"/>
    </contour>
    <contour>
      <point x="140.2" y="374" type="line"/>
      <point x="48.2" y="466" type="line"/>
      <point x="78.2" y="496" type="line"/>
      <point x="170.2" y="405" type="line"/>
    </contour>
    <contour>
      <point x="443.2" y="404" type="line"/>
      <point x="536.2" y="496" type="line"/>
      <point x="567.2" y="465" type="line"/>
      <point x="474.2" y="373" type="line"/>
    </contour>
    <contour>
      <point x="307.2" y="461.6" type="curve" smooth="yes"/>
      <point x="188.6" y="461.6"/>
      <point x="111.2" y="370.8"/>
      <point x="111.2" y="259" type="curve" smooth="yes"/>
      <point x="111.2" y="147.2"/>
      <point x="187.6" y="57.4"/>
      <point x="307.2" y="57.4" type="curve" smooth="yes"/>
      <point x="425.8" y="57.4"/>
      <point x="502.6" y="147.2"/>
      <point x="502.6" y="259" type="curve" smooth="yes"/>
      <point x="502.6" y="370.8"/>
      <point x="425.8" y="461.6"/>
    </contour>
    <contour>
      <point x="307.2" y="31.6" type="curve" smooth="yes"/>
      <point x="183.6" y="31.6"/>
      <point x="84.8" y="132.8"/>
      <point x="84.8" y="260" type="curve" smooth="yes"/>
      <point x="84.8" y="387.2"/>
      <point x="183.6" y="487.4"/>
      <point x="307.2" y="487.4" type="curve" smooth="yes"/>
      <point x="430.8" y="487.4"/>
      <point x="529.6" y="387.2"/>
      <point x="529.6" y="260" type="curve" smooth="yes"/>
      <point x="529.6" y="132.8"/>
      <point x="430.8" y="31.6"/>
    </contour>
  </outline>
</glyph>
<glyph name="yen" format="2">
  <advance width="564"/>
  <unicode hex="00A5"/>
  <outline>
    <contour>
      <point x="111.4" y="287.8" type="line"/>
      <point x="454.8" y="287.8" type="line"/>
      <point x="454.8" y="250.2" type="line"/>
      <point x="111.4" y="250.2" type="line"/>
    </contour>
    <contour>
      <point x="111.4" y="154.8" type="line"/>
      <point x="454.8" y="154.8" type="line"/>
      <point x="454.8" y="114" type="line"/>
      <point x="111.4" y="114" type="line"/>
    </contour>
    <component base="Y"/>
  </outline>
</glyph>
<glyph name="uni0304" format="2">
  <advance width="0"/>
  <unicode hex="0304"/>
  <anchor x="0" y="833" name="AccentCenter"/>
  <outline>
    <contour>
      <point x="-108" y="841" type="line"/>
      <point x="108" y="841" type="line"/>
      <point x="108" y="825" type="line"/>
      <point x="-108" y="825" type="line"/>
    </contour>
  </outline>
</glyph>
<glyph name="uni030A" format="2">
  <unicode hex="030A"/>
  <anchor x="0" y="840" name="_Ring"/>
  <outline>
    <contour>
      <point x="0" y="924" type="curve" smooth="yes"/>
      <point x="49" y="924"/>
      <point x="89" y="892"/>
      <point x="89" y="840" type="curve" smooth="yes"/>
      <point x="89" y="788"/>
      <point x="49" y="756"/>
      <point x="0" y="756" type="curve" smooth="yes"/>
      <point x="-49" y="756"/>
      <point x="-89" y="788"/>
      <point x="-89" y="840" type="curve" smooth="yes"/>
      <point x="-89" y="892"/>
      <point x="-49" y="924"/>
    </contour>
    <contour>
      <point x="0" y="897" type="curve" smooth="yes"/>
      <point x="-36" y="897"/>
      <point x="-59" y="874"/>
      <point x="-59" y="840" type="curve" smooth="yes"/>
      <point x="-59" y="806"/>
      <point x="-36" y="783"/>
      <point x="0" y="783" type="curve" smooth="yes"/>
      <point x="36" y="783"/>
      <point x="59" y="806"/>
      <point x="59" y="840" type="curve" smooth="yes"/>
      <point x="59" y="874"/>
      <point x="36" y="897"/>
    </contour>
  </outline>
</glyph>
<glyph name="uni0327" format="2">
  <unicode hex="0327"/>
  <outline>
    <contour>
      <point x="-16" y="-5" type="line"/>
      <point x="16" y="-5" type="line"/>
      <point x="16" y="-127" type="line"/>
      <point x="16" y="-190"/>
      <point x="-25" y="-224"/>
      <point x="-80" y="-224" type="curve" smooth="yes"/>
      <point x="-91" y="-224"/>
      <point x="-99" y="-223"/>
      <point x="-104" y="-221" type="curve"/>
      <point x="-100" y="-196" type="line"/>
      <point x="-80" y="-196" type="line" smooth="yes"/>
      <point x="-40" y="-196"/>
      <point x="-16" y="-172"/>
      <point x="-16" y="-125" type="curve" smooth="yes"/>
    </contour>
  </outline>
</glyph>
<glyph name="Euro" format="2">
  <advance width="646"/>
  <unicode hex="20AC"/>
  <outline>
    <contour>
      <point x="409" y="716" type="curve" smooth="yes"/>
      <point x="492" y="716"/>
      <point x="550" y="694"/>
      <point x="625" y="642" type="curve"/>
      <point x="608" y="619" type="line"/>
      <point x="542" y="668"/>
      <point x="480" y="688"/>
      <point x="409" y="688" type="curve"/>
      <point x="268" y="688"/>
      <point x="172" y="572"/>
      <point x="157" y="482" type="curve"/>
      <point x="487" y="482" type="line"/>
      <point x="477" y="454" type="line"/>
      <point x="152" y="454" type="line"/>
      <point x="147" y="428"/>
      <point x="145" y="389"/>
      <point x="145" y="359" type="curve" smooth="yes"/>
      <point x="145" y="327"/>
      <point x="146" y="289"/>
      <point x="149" y="273" type="curve"/>
      <point x="413" y="273" type="line"/>
      <point x="403" y="245" type="line"/>
      <point x="151" y="245" type="line"/>
      <point x="166" y="119"/>
      <point x="259" y="20"/>
      <point x="399" y="20" type="curve" smooth="yes"/>
      <point x="475" y="20"/>
      <point x="537" y="39"/>
      <point x="615" y="91" type="curve"/>
      <point x="628" y="61" type="line"/>
      <point x="548" y="12"/>
      <point x="495" y="-8"/>
      <point x="399" y="-8" type="curve" smooth="yes"/>
      <point x="241" y="-8"/>
      <point x="134" y="104"/>
      <point x="117" y="245" type="curve"/>
      <point x="34" y="245" type="line"/>
      <point x="34" y="273" type="line"/>
      <point x="114" y="273" type="line"/>
      <point x="112" y="288"/>
      <point x="110" y="327"/>
      <point x="110" y="359" type="curve" smooth="yes"/>
      <point x="110" y="391"/>
      <point x="112" y="425"/>
      <point x="117" y="454" type="curve"/>
      <point x="34" y="454" type="line"/>
      <point x="34" y="482" type="line"/>
      <point x="123" y="482" type="line"/>
      <point x="144" y="586"/>
      <point x="245" y="716"/>
    </contour>
  </outline>
</glyph>
